<svg width="90" height="30" viewBox="0 0 90 30" fill="none" xmlns="http://www.w3.org/2000/svg">
<g clip-path="url(#clip0_331_15835)">
<path d="M19.5636 14.135C19.7111 14.2218 19.8732 14.2669 20.037 14.2669C20.1877 14.2669 20.3385 14.2302 20.4763 14.1551L21.6386 13.5272C21.7813 13.4504 21.8705 13.3001 21.8737 13.1348C21.8769 12.9695 21.7926 12.8159 21.6532 12.7324L17.2324 10.1041V11.9258C17.2324 12.4351 17.4983 12.9094 17.9263 13.1648L19.5604 14.1367L19.5636 14.135Z" fill="#67ECB5"/>
<path d="M27.1133 11.4416C26.9836 8.11863 26.0418 6.42877 23.3766 4.7456C21.3065 3.43813 18.5635 1.77331 17.0769 1.01689C14.4053 -0.340678 12.7113 -0.340678 10.1012 1.02357C8.6163 1.80003 5.81499 3.48321 3.8129 4.74727C1.19641 6.39872 0.252913 8.08524 0.0778319 11.4249C0.0308193 12.3065 0.00326013 13.5105 1.78837e-05 14.8163C-0.00484549 16.8167 0.98242 18.5917 2.71216 19.6855C4.26358 20.6673 9.75757 23.9268 11.0561 24.5664C12.6772 25.3662 13.9433 25.5349 16.0508 24.4779C16.4382 24.2842 16.9667 23.9903 17.5827 23.6296L18.121 23.314L16.435 22.3472C16.0816 22.1368 15.6812 22.1 15.177 22.267C15.177 22.267 14.9857 22.3305 14.8284 22.3889V2.78523C15.1624 2.90378 15.5434 3.07244 15.9843 3.29786C17.4028 4.01922 20.0663 5.63895 22.0862 6.91469C24.0008 8.12364 24.552 9.11886 24.646 11.5434C24.7238 13.5506 24.7659 16.4176 24.646 18.4398C24.539 20.2682 24.124 21.3286 23.341 22.1435L21.467 21.0297C22.0246 20.6172 22.5677 19.6988 22.6779 18.6769H20.2965C20.1441 19.1829 19.8653 19.5168 19.4146 19.8107L17.231 18.5116V20.4269C17.231 20.8777 17.466 21.2985 17.8454 21.524L22.8255 24.4845H20.7585C20.2997 24.4845 19.8491 24.4879 19.4551 24.7267C17.9053 25.6684 16.7398 26.3347 15.9908 26.7071C14.9225 27.2381 14.2238 27.4552 13.5818 27.4568C12.9528 27.4568 12.2687 27.2448 11.2279 26.7254L9.1075 25.5399V27.7474C9.1075 28.1698 9.33121 28.5589 9.69273 28.7593L10.1175 28.9964C11.5424 29.7094 12.5491 30 13.5948 30C14.6161 29.9983 15.6536 29.6977 17.0624 28.9981C17.8778 28.5923 20.8655 26.819 20.932 26.7772H27.0793V24.8853C27.0793 24.5664 26.9123 24.2691 26.6448 24.1105L25.5246 23.4442C26.4941 22.247 26.982 20.7508 27.1085 18.5951C27.2317 16.4794 27.1895 13.5138 27.1085 11.4432L27.1133 11.4416ZM9.23233 6.84122V8.76652C9.23233 9.2107 9.46415 9.62648 9.83863 9.84857L12.3595 11.3481V15.6094L5.64802 11.6186V13.5439C5.64802 13.9881 5.87984 14.4022 6.25432 14.6259L12.3595 18.2561V22.3939C12.2849 22.3589 12.2103 22.3221 12.1358 22.2821C10.0461 21.1733 5.69827 18.5934 3.96529 17.498C2.99748 16.8852 2.46575 15.9351 2.46737 14.8246C2.47061 13.5789 2.49817 12.39 2.54032 11.5618C2.67163 9.0721 3.19688 8.11696 5.1017 6.91469C7.0584 5.67903 9.78837 4.03759 11.2166 3.29118C11.6624 3.05741 12.0304 2.89209 12.3579 2.77521V8.7014L9.2307 6.84122H9.23233Z" fill="#67ECB5"/>
<path d="M69.4719 9.34097L68.2204 10.8856L68.1264 10.7954C67.8491 10.5282 67.5492 10.2777 67.238 10.049C66.9056 9.80518 66.5506 9.58977 66.1826 9.40776C65.8146 9.22575 65.4304 9.08215 65.0414 8.98029C64.6523 8.87843 64.2551 8.82666 63.8563 8.82666C62.9923 8.82666 62.1687 8.99198 61.4068 9.31926C60.6449 9.64655 59.9705 10.1124 59.4015 10.7019C58.8324 11.2913 58.3769 12.0093 58.0478 12.8326C57.7187 13.6575 57.5518 14.5742 57.5518 15.5594C57.5518 16.6164 57.7187 17.5715 58.0478 18.3997C58.3769 19.228 58.8324 19.9377 59.4015 20.5054C59.9705 21.0765 60.6449 21.5173 61.4052 21.8162C62.1655 22.1151 62.9906 22.2671 63.8563 22.2671C64.2519 22.2671 64.6474 22.2153 65.0349 22.1134C65.4207 22.0116 65.8017 21.8696 66.1697 21.6926C66.5344 21.5173 66.8894 21.3052 67.2266 21.0631C67.5395 20.836 67.841 20.5922 68.1231 20.3351L68.2236 20.2432L69.4735 22.0283H70.2435V9.34097H69.4719ZM66.8181 16.8785C66.6495 17.301 66.4177 17.6817 66.1275 18.0073C65.8357 18.3363 65.492 18.6018 65.1062 18.7972C64.7187 18.9959 64.2989 19.0961 63.8579 19.0961C63.417 19.0961 63.0004 19.0193 62.6129 18.8656C62.2238 18.712 61.8818 18.4816 61.5948 18.1827C61.3079 17.8854 61.0793 17.5097 60.9156 17.0689C60.7519 16.6297 60.6676 16.1221 60.6676 15.5594C60.6676 14.9967 60.7502 14.489 60.9156 14.0499C61.0809 13.609 61.3095 13.2333 61.5965 12.9361C61.8834 12.6372 62.2255 12.4068 62.6145 12.2531C63.002 12.0995 63.4202 12.0227 63.8596 12.0227C64.2989 12.0227 64.7187 12.1229 65.1078 12.3216C65.4936 12.517 65.8373 12.7841 66.1291 13.1114C66.4177 13.4387 66.6511 13.8178 66.8197 14.2419C66.9883 14.666 67.0726 15.1085 67.0726 15.5611C67.0726 16.0136 66.9867 16.4561 66.8197 16.8802L66.8181 16.8785Z" fill="#67ECB5"/>
<path d="M89.2281 9.34097L87.9766 10.8856L87.8825 10.7954C87.607 10.5299 87.307 10.2794 86.9942 10.049C86.6618 9.80518 86.3068 9.58977 85.9388 9.40776C85.5708 9.22575 85.1866 9.08215 84.7975 8.98029C84.4085 8.87843 84.0113 8.82666 83.6141 8.82666C82.7501 8.82666 81.9265 8.99198 81.1646 9.31926C80.4027 9.64655 79.7283 10.1124 79.1593 10.7019C78.5903 11.2913 78.1347 12.0093 77.8056 12.8326C77.4765 13.6558 77.3096 14.5742 77.3096 15.5594C77.3096 16.6164 77.4765 17.5715 77.8056 18.3997C78.1347 19.228 78.5903 19.9377 79.1593 20.5054C79.7283 21.0765 80.4027 21.5173 81.163 21.8179C81.9233 22.1168 82.7484 22.2687 83.6141 22.2687C84.0097 22.2687 84.4052 22.217 84.7927 22.1151C85.1817 22.0116 85.5627 21.8696 85.9275 21.6943C86.2922 21.519 86.6472 21.3069 86.9844 21.0648C87.2973 20.8377 87.5988 20.5922 87.8809 20.3367L87.9814 20.2449L89.2313 22.0299H90.0014V9.34097H89.2281ZM86.5743 16.8785C86.4057 17.301 86.1739 17.6817 85.8853 18.0073C85.5935 18.3346 85.2498 18.6001 84.864 18.7972C84.4782 18.9959 84.0567 19.0961 83.6157 19.0961C83.1748 19.0961 82.7582 19.0193 82.3707 18.8656C81.9816 18.712 81.6396 18.4816 81.3527 18.1827C81.0657 17.8838 80.8371 17.5097 80.6734 17.0689C80.5097 16.6297 80.4254 16.1221 80.4254 15.5594C80.4254 14.9967 80.508 14.489 80.6734 14.0499C80.8388 13.609 81.0673 13.2333 81.3543 12.9361C81.6396 12.6372 81.9833 12.4068 82.3723 12.2531C82.7598 12.0995 83.178 12.0227 83.6157 12.0227C84.0534 12.0227 84.4749 12.1229 84.864 12.3216C85.2498 12.5186 85.5935 12.7841 85.8853 13.1114C86.1755 13.4387 86.4073 13.8178 86.5759 14.2402C86.7445 14.6644 86.8288 15.1069 86.8288 15.5594C86.8288 16.0119 86.7429 16.4544 86.5759 16.8785H86.5743Z" fill="#67ECB5"/>
<path d="M43.0406 10.6585C42.4732 10.0707 41.8005 9.61315 41.0418 9.29421C40.2815 8.97528 39.4531 8.8133 38.5809 8.8133C37.7088 8.8133 36.8933 8.9853 36.1314 9.3226C35.3711 9.66157 34.6967 10.1341 34.1261 10.7286C33.5571 11.323 33.1015 12.0411 32.7724 12.861C32.4433 13.6808 32.2764 14.5842 32.2764 15.546C32.2764 16.5078 32.4433 17.3845 32.7724 18.201C33.1031 19.0176 33.5587 19.7323 34.1261 20.3251C34.6951 20.9195 35.3695 21.3937 36.1314 21.7394C36.8933 22.0817 37.7169 22.2554 38.5809 22.2554C39.445 22.2554 40.2782 22.0817 41.0402 21.7394C41.8037 21.3954 42.4765 20.9195 43.0406 20.3267C43.6064 19.7339 44.0603 19.0176 44.3894 18.2027C44.7185 17.3862 44.8855 16.4928 44.8855 15.5477C44.8855 14.5391 44.7185 13.609 44.3894 12.7858C44.0603 11.9626 43.6064 11.2479 43.0406 10.6601V10.6585ZM41.5411 16.9904C41.3709 17.4279 41.1391 17.8036 40.8489 18.1092C40.5587 18.4164 40.2134 18.6586 39.8259 18.8272C39.4385 18.9975 39.0186 19.0827 38.5809 19.0827C38.1432 19.0827 37.7201 18.9909 37.3327 18.8089C36.9452 18.6285 36.6031 18.3764 36.3178 18.0608C36.0325 17.7468 35.8039 17.3711 35.6386 16.9437C35.4748 16.5162 35.3905 16.047 35.3905 15.5477C35.3905 15.0184 35.4732 14.5291 35.6386 14.0966C35.8039 13.6641 36.0325 13.2884 36.3178 12.9778C36.6031 12.6673 36.9468 12.4251 37.3343 12.2598C37.7217 12.0945 38.1416 12.0093 38.5793 12.0093C39.017 12.0093 39.4369 12.0928 39.8243 12.2598C40.2118 12.4251 40.5571 12.6673 40.8473 12.9778C41.1358 13.2884 41.3693 13.6641 41.5379 14.0966C41.7065 14.5308 41.7908 15.0184 41.7908 15.5477C41.7908 16.077 41.7065 16.5546 41.5379 16.9921L41.5411 16.9904Z" fill="#67ECB5"/>
<path d="M49.6725 4.20458H46.5811V22.0149H49.6725V4.20458Z" fill="#67ECB5"/>
<path d="M57.6812 9.32759H54.1585L50.0879 15.6829L54.1585 22.0149H57.6829L53.5911 15.6612L57.6812 9.32759Z" fill="#67ECB5"/>
<path d="M75.613 4.20458H72.5215V22.0149H75.613V4.20458Z" fill="#67ECB5"/>
</g>
<defs>
<clipPath id="clip0_331_15835">
<rect width="90" height="30" fill="white"/>
</clipPath>
</defs>
</svg>
